<svg width="235" height="80" viewBox="0 0 235 80" fill="none" xmlns="http://www.w3.org/2000/svg">
<path d="M46 62V61.5H45.7929L45.6464 61.6464L46 62ZM113 62L113.407 61.7094L113.257 61.5H113V62ZM39 69V69.5H39.2071L39.3536 69.3536L39 69ZM120.5 72.5L120.093 72.7906L120.243 73H120.5V72.5ZM176 72.5V73H176.163L176.295 72.904L176 72.5ZM197.333 55C197.333 56.4728 198.527 57.6667 200 57.6667C201.473 57.6667 202.667 56.4728 202.667 55C202.667 53.5272 201.473 52.3333 200 52.3333C198.527 52.3333 197.333 53.5272 197.333 55ZM46 62V62.5H113V62V61.5H46V62ZM0 69V69.5H39V69V68.5H0V69ZM39 69L39.3536 69.3536L46.3536 62.3536L46 62L45.6464 61.6464L38.6464 68.6464L39 69ZM113 62L112.593 62.2906L120.093 72.7906L120.5 72.5L120.907 72.2094L113.407 61.7094L113 62ZM120.5 72.5V73H176V72.5V72H120.5V72.5ZM176 72.5L176.295 72.904L200.295 55.404L200 55L199.705 54.596L175.705 72.096L176 72.5Z" fill="#FEFEFE"/>
</svg>
